# xmcd
#
# Track frame offsets:
#	150
#	19512
#	37199
#	53481
#	71408
#	87115
#	100712
#	116563
#	128369
#	144354
#
# Disc length: 2287 seconds
#
# Revision: 0
# Processed by: cddbd v1.5.2PL0 Copyright (c) Steve Scherf et al.
# Submitted via: audiograbber 1.83.01
#
DISCID=7308ed0a
DTITLE=Chris Buggs and The Sliders - Volume One
DYEAR=2003
DGENRE=Country
TTITLE0=Don't You Even Think About Livi'
TTITLE1=Mr. Jones
TTITLE2=Blue Moon Of Kentucky
TTITLE3=That's All Right Mama
TTITLE4=I Feel Lucky
TTITLE5=Honky Tonk Blues
TTITLE6=Southern Stream Line
TTITLE7=Hey Good Looking
TTITLE8=I Don't Even Know Your Name
TTITLE9=Old Guitar
EXTD=
EXTT0=
EXTT1=
EXTT2=
EXTT3=
EXTT4=
EXTT5=
EXTT6=
EXTT7=
EXTT8=
EXTT9=
PLAYORDER=
